<?xml version="1.0" standalone="no"?><!DOCTYPE svg PUBLIC "-//W3C//DTD SVG 1.1//EN" "http://www.w3.org/Graphics/SVG/1.1/DTD/svg11.dtd"><svg t="1762925127142" class="icon" viewBox="0 0 1024 1024" version="1.1" xmlns="http://www.w3.org/2000/svg" p-id="47934" xmlns:xlink="http://www.w3.org/1999/xlink" width="64" height="64"><path d="M415.806061 521.309091c17.066667 0 32.581818 13.963636 32.581818 32.581818s-13.963636 32.581818-32.581818 32.581818h-107.054546c-17.066667 0-32.581818-13.963636-32.581818-32.581818s13.963636-32.581818 32.581818-32.581818h107.054546z m234.278787-170.666667c17.066667 0 32.581818 13.963636 32.581819 32.581818s-13.963636 32.581818-32.581819 32.581819h-341.333333c-17.066667 0-32.581818-13.963636-32.581818-32.581819s13.963636-32.581818 32.581818-32.581818h341.333333z m224.969697-192.387879v200.145455c-20.169697-12.412121-41.890909-21.721212-63.612121-29.478788v-170.666667H192.387879v704.387879h214.109091c17.066667 23.272727 35.684848 44.993939 57.40606 63.612121H192.387879c-35.684848 0-63.612121-27.927273-63.612121-63.612121V158.254545c0-35.684848 27.927273-63.612121 63.612121-63.612121h619.054545c34.133333 0 63.612121 29.478788 63.612121 63.612121z m-43.442424 544.581819c0-76.024242-62.060606-138.084848-138.084848-138.084849s-138.084848 62.060606-138.084849 138.084849 62.060606 138.084848 138.084849 138.084848 138.084848-62.060606 138.084848-138.084848z m26.375758 119.466666l29.478788 29.478788c12.412121 12.412121 12.412121 32.581818 0 44.99394s-32.581818 12.412121-44.99394 0l-29.478788-29.478788c-34.133333 24.824242-74.472727 38.787879-119.466666 38.787878-111.709091 0-203.248485-89.987879-203.248485-203.248484s89.987879-203.248485 203.248485-203.248485S896.775758 589.575758 896.775758 702.836364c0 44.993939-15.515152 85.333333-38.787879 119.466666z" p-id="47935" fill="#5883f1"></path></svg>