<?xml version="1.0" standalone="no"?><!DOCTYPE svg PUBLIC "-//W3C//DTD SVG 1.1//EN" "http://www.w3.org/Graphics/SVG/1.1/DTD/svg11.dtd"><svg t="1762925637890" class="icon" viewBox="0 0 1024 1024" version="1.1" xmlns="http://www.w3.org/2000/svg" p-id="82211" xmlns:xlink="http://www.w3.org/1999/xlink" width="64" height="64"><path d="M727.61344 114.54464 290.05824 114.54464c-93.51168 0-170.35264 76.82048-170.35264 173.69088l0 437.5552c0 93.53216 76.82048 167.0144 170.35264 167.0144l437.5552 0c93.51168 0 170.35264-76.82048 170.35264-170.35264L897.96608 288.23552C897.9456 191.36512 821.12512 114.54464 727.61344 114.54464zM847.85152 722.432c0 66.80576-53.43232 120.23808-120.23808 120.23808L290.05824 842.67008c-66.80576 0-120.23808-53.43232-120.23808-120.23808L169.82016 288.23552c0-66.80576 53.43232-120.23808 120.23808-120.23808l437.5552 0c66.80576 0 120.23808 53.43232 120.23808 120.23808L847.85152 722.432z" fill="#5883f1" p-id="82212"></path><path d="M305.152 503.66464c0 20.25472 16.42496 36.67968 36.67968 36.67968s36.67968-16.42496 36.67968-36.67968c0-20.25472-16.42496-36.70016-36.67968-36.70016S305.152 483.40992 305.152 503.66464L305.152 503.66464z" fill="#5883f1" p-id="82213"></path><path d="M470.69184 503.66464c0 20.25472 16.42496 36.67968 36.67968 36.67968s36.67968-16.42496 36.67968-36.67968c0-20.25472-16.42496-36.70016-36.67968-36.70016S470.69184 483.40992 470.69184 503.66464L470.69184 503.66464z" fill="#5883f1" p-id="82214"></path><path d="M636.23168 503.66464c0 20.25472 16.42496 36.67968 36.67968 36.67968s36.67968-16.42496 36.67968-36.67968c0-20.25472-16.42496-36.70016-36.67968-36.70016S636.23168 483.40992 636.23168 503.66464L636.23168 503.66464z" fill="#5883f1" p-id="82215"></path></svg>