<?xml version="1.0" standalone="no"?><!DOCTYPE svg PUBLIC "-//W3C//DTD SVG 1.1//EN" "http://www.w3.org/Graphics/SVG/1.1/DTD/svg11.dtd"><svg t="1762925113030" class="icon" viewBox="0 0 1066 1024" version="1.1" xmlns="http://www.w3.org/2000/svg" p-id="46878" xmlns:xlink="http://www.w3.org/1999/xlink" width="66.625" height="64"><path d="M1057.536 0h-1024v1024h1024V0z" fill="#5883f1" fill-opacity=".01" p-id="46879"></path><path d="M76.202667 149.333333a42.666667 42.666667 0 0 1 42.666666-42.666666h853.333334a42.666667 42.666667 0 1 1 0 85.333333h-853.333334a42.666667 42.666667 0 0 1-42.666666-42.666667zM76.202667 490.666667a42.666667 42.666667 0 0 1 42.666666-42.666667h234.666667a42.666667 42.666667 0 1 1 0 85.333333h-234.666667a42.666667 42.666667 0 0 1-42.666666-42.666666zM76.202667 832a42.666667 42.666667 0 0 1 42.666666-42.666667h234.666667a42.666667 42.666667 0 1 1 0 85.333334h-234.666667a42.666667 42.666667 0 0 1-42.666666-42.666667zM481.536 544a224 224 0 1 1 448 0 224 224 0 0 1-448 0z m224-138.666667a138.666667 138.666667 0 1 0 0 277.333334 138.666667 138.666667 0 0 0 0-277.333334z" fill="#5883f1" p-id="46880"></path><path d="M792.789333 652.373333a42.666667 42.666667 0 0 1 60.373334 0.256l149.333333 150.4a42.666667 42.666667 0 1 1-60.586667 60.117334l-149.333333-150.4a42.666667 42.666667 0 0 1 0.213333-60.373334z" fill="#5883f1" p-id="46881"></path></svg>