<?xml version="1.0" standalone="no"?><!DOCTYPE svg PUBLIC "-//W3C//DTD SVG 1.1//EN" "http://www.w3.org/Graphics/SVG/1.1/DTD/svg11.dtd"><svg t="1762917139020" class="icon" viewBox="0 0 1024 1024" version="1.1" xmlns="http://www.w3.org/2000/svg" p-id="10486" xmlns:xlink="http://www.w3.org/1999/xlink" width="64" height="64"><path d="M128 218.069333a42.666667 42.666667 0 0 1 42.666667-42.666666h426.666666a42.666667 42.666667 0 0 1 42.666667 42.666666v104.32a42.666667 42.666667 0 1 0 85.333333 0V218.026667a128 128 0 0 0-128-128H170.666667a128 128 0 0 0-128 128V805.973333a128 128 0 0 0 128 128h426.666666a128 128 0 0 0 128-128v-104.32a42.666667 42.666667 0 0 0-85.333333 0v104.32a42.666667 42.666667 0 0 1-42.666667 42.666667H170.666667a42.666667 42.666667 0 0 1-42.666667-42.666667V218.026667z m755.498667 135.765334a42.666667 42.666667 0 1 0-60.330667 60.330666L878.336 469.333333H320a42.666667 42.666667 0 1 0 0 85.333334h558.336l-55.168 55.168a42.666667 42.666667 0 0 0 60.330667 60.330666l128-128a42.666667 42.666667 0 0 0 0-60.330666l-128-128z" fill="#000000" p-id="10487"></path></svg>