<?xml version="1.0" standalone="no"?><!DOCTYPE svg PUBLIC "-//W3C//DTD SVG 1.1//EN" "http://www.w3.org/Graphics/SVG/1.1/DTD/svg11.dtd"><svg t="1763019286173" class="icon" viewBox="0 0 1024 1024" version="1.1" xmlns="http://www.w3.org/2000/svg" p-id="5256" xmlns:xlink="http://www.w3.org/1999/xlink" width="64" height="64"><path d="M804.571429 0a73.142857 73.142857 0 0 1 73.142857 73.142857v329.142857a36.571429 36.571429 0 0 1-73.142857 0V73.142857H73.142857v877.714286h329.142857a36.571429 36.571429 0 0 1 0 73.142857H73.142857a73.142857 73.142857 0 0 1-73.142857-73.142857V73.142857a73.142857 73.142857 0 0 1 73.142857-73.142857h731.428572z m-36.571429 512a256 256 0 1 1 0 512 256 256 0 0 1 0-512z m0 73.142857a182.857143 182.857143 0 1 0 0 365.714286 182.857143 182.857143 0 0 0 0-365.714286z m0 36.571429a36.571429 36.571429 0 0 1 35.986286 29.988571L804.571429 658.285714v94.573715l62.610285 62.464a36.571429 36.571429 0 0 1-46.665143 55.954285l-5.12-4.169143-62.537142-62.537142a73.142857 73.142857 0 0 1-20.772572-42.130286L731.428571 752.859429V658.285714a36.571429 36.571429 0 0 1 36.571429-36.571428z m-365.714286 36.571428a36.571429 36.571429 0 0 1 0 73.142857h-219.428571a36.571429 36.571429 0 0 1 0-73.142857h219.428571z m0-219.428571a36.571429 36.571429 0 0 1 0 73.142857h-219.428571a36.571429 36.571429 0 0 1 0-73.142857h219.428571z m292.571429-219.428572a36.571429 36.571429 0 0 1 0 73.142858h-512a36.571429 36.571429 0 0 1 0-73.142858h512z" fill="#ffffff" p-id="5257"></path></svg>