<?xml version="1.0" standalone="no"?><!DOCTYPE svg PUBLIC "-//W3C//DTD SVG 1.1//EN" "http://www.w3.org/Graphics/SVG/1.1/DTD/svg11.dtd"><svg t="1762930953931" class="icon" viewBox="0 0 1024 1024" version="1.1" xmlns="http://www.w3.org/2000/svg" p-id="85994" id="mx_n_1762930953931" xmlns:xlink="http://www.w3.org/1999/xlink" width="64" height="64"><path d="M974.528 374.528a41.152 41.152 0 0 0-57.152 9.984l-32.96 47.104c-37.76-198.784-212.608-349.696-422.208-349.696A430.592 430.592 0 0 0 32.128 512a430.592 430.592 0 0 0 430.08 430.08 430.4 430.4 0 0 0 273.024-97.792 40.96 40.96 0 1 0-52.16-63.296A348.736 348.736 0 0 1 462.08 860.16 348.416 348.416 0 0 1 113.984 512c0-192 156.16-348.16 348.16-348.16 172.928 0 316.352 126.72 343.232 292.032l-59.072-41.472a41.152 41.152 0 0 0-57.088 9.984 41.152 41.152 0 0 0 9.984 57.088l134.08 94.208c18.432 12.928 44.16 8.512 57.152-9.984l94.144-134.08a41.152 41.152 0 0 0-10.048-57.088z" fill="#5884f1" p-id="85995"></path></svg>