<?xml version="1.0" standalone="no"?><!DOCTYPE svg PUBLIC "-//W3C//DTD SVG 1.1//EN" "http://www.w3.org/Graphics/SVG/1.1/DTD/svg11.dtd"><svg t="1762851221908" class="icon" viewBox="0 0 1024 1024" version="1.1" xmlns="http://www.w3.org/2000/svg" p-id="4688" width="64" height="64" xmlns:xlink="http://www.w3.org/1999/xlink"><path d="M944 192H755.2v-44.8c0-54.4-44.8-99.2-99.2-99.2h-294.4C307.2 48 262.4 92.8 262.4 147.2v44.8h-179.2c-12.8 0-25.6 9.6-25.6 25.6 0 12.8 9.6 25.6 25.6 25.6h60.8v633.6c0 54.4 44.8 99.2 99.2 99.2H793.6c54.4 0 99.2-44.8 99.2-99.2V243.2h51.2c12.8 0 25.6-9.6 25.6-25.6-3.2-12.8-9.6-25.6-25.6-25.6z m-627.2-44.8c0-25.6 22.4-48 48-48h294.4c25.6 0 48 22.4 48 48v44.8h-390.4v-44.8z m524.8 720c0 28.8-16 57.6-41.6 57.6H249.6c-25.6 0-54.4-19.2-54.4-44.8L198.4 243.2h643.2v624z m-473.6-486.4c-16 0-25.6 9.6-25.6 25.6v342.4c0 16 12.8 25.6 25.6 25.6s25.6-9.6 25.6-25.6V406.4c-3.2-12.8-9.6-25.6-25.6-25.6z m160 0c-16 0-25.6 9.6-25.6 25.6v342.4c0 16 12.8 25.6 25.6 25.6s25.6-9.6 25.6-25.6V406.4c-3.2-12.8-9.6-25.6-25.6-25.6z m160 0c-16 0-25.6 9.6-25.6 25.6v342.4c0 16 12.8 25.6 25.6 25.6s25.6-9.6 25.6-25.6V406.4c-3.2-12.8-9.6-25.6-25.6-25.6z" fill="#ffffff" p-id="4689"></path></svg>