<?xml version="1.0" standalone="no"?><!DOCTYPE svg PUBLIC "-//W3C//DTD SVG 1.1//EN" "http://www.w3.org/Graphics/SVG/1.1/DTD/svg11.dtd"><svg t="1762859533574" class="icon" viewBox="0 0 1024 1024" version="1.1" xmlns="http://www.w3.org/2000/svg" p-id="21067" xmlns:xlink="http://www.w3.org/1999/xlink" width="64" height="64"><path d="M512 1022c-68.83 0-135.62-13.49-198.53-40.1-60.74-25.69-115.27-62.46-162.09-109.28C104.56 825.8 67.79 771.27 42.1 710.53 15.49 647.62 2 580.83 2 512c0-68.83 13.49-135.62 40.1-198.53 25.69-60.74 62.46-115.27 109.28-162.09C198.2 104.56 252.73 67.79 313.47 42.1 376.38 15.49 443.17 2 512 2c68.83 0 135.62 13.49 198.53 40.1 60.74 25.69 115.27 62.46 162.09 109.28 46.82 46.82 83.59 101.36 109.28 162.09 26.61 62.91 40.1 129.7 40.1 198.53 0 68.83-13.49 135.62-40.1 198.53-25.69 60.74-62.46 115.27-109.28 162.09-46.82 46.82-101.35 83.59-162.09 109.28-62.91 26.61-129.7 40.1-198.53 40.1z m0-920c-226.07 0-410 183.93-410 410 0 226.08 183.93 410 410 410 226.08 0 410-183.92 410-410 0-226.07-183.92-410-410-410z" fill="#3b75f2" p-id="21068"></path><path d="M688.78 388.07L547.36 246.64c-0.04-0.04-0.09-0.08-0.13-0.12-0.54-0.53-1.08-1.05-1.64-1.56-0.16-0.14-0.32-0.28-0.49-0.42-0.45-0.4-0.91-0.8-1.38-1.18-0.14-0.12-0.29-0.22-0.43-0.34-0.5-0.4-1-0.8-1.52-1.18-0.09-0.06-0.18-0.12-0.26-0.19-0.58-0.42-1.17-0.84-1.76-1.24-0.02-0.01-0.04-0.02-0.05-0.03a49.706 49.706 0 0 0-22.74-8.12c-0.1-0.01-0.2-0.01-0.3-0.02-0.71-0.07-1.42-0.12-2.14-0.16a52.145 52.145 0 0 0-5 0c-0.71 0.03-1.41 0.09-2.11 0.16-0.11 0.01-0.23 0.01-0.34 0.03-8.34 0.82-16.08 3.7-22.71 8.11-0.03 0.02-0.06 0.04-0.08 0.05-0.59 0.39-1.17 0.8-1.74 1.22-0.1 0.07-0.2 0.14-0.29 0.21-0.51 0.38-1 0.77-1.5 1.17-0.15 0.12-0.3 0.23-0.45 0.35-0.46 0.38-0.91 0.77-1.36 1.17-0.17 0.15-0.34 0.29-0.5 0.44-0.56 0.51-1.1 1.03-1.64 1.56-0.04 0.04-0.09 0.08-0.13 0.13L335.22 388.07c-19.53 19.53-19.53 51.18 0 70.71 9.76 9.76 22.56 14.64 35.36 14.64s25.59-4.88 35.36-14.64L462 402.71V742c0 27.61 22.39 50 50 50s50-22.39 50-50V402.71l56.07 56.07c19.53 19.53 51.19 19.53 70.71 0 19.52-19.53 19.52-51.19 0-70.71z" fill="#3b75f2" p-id="21069" data-spm-anchor-id="a313x.search_index.0.i17.216a3a81EK44Nv" class=""></path></svg>