<?xml version="1.0" standalone="no"?><!DOCTYPE svg PUBLIC "-//W3C//DTD SVG 1.1//EN" "http://www.w3.org/Graphics/SVG/1.1/DTD/svg11.dtd"><svg t="1762924950611" class="icon" viewBox="0 0 1024 1024" version="1.1" xmlns="http://www.w3.org/2000/svg" p-id="38520" xmlns:xlink="http://www.w3.org/1999/xlink" width="64" height="64"><path d="M537.344 81.6h191.36a32 32 0 0 1 11.52 61.824c-99.136 38.272-160.896 71.68-195.2 105.344-16.576 16.256-25.856 31.808-30.272 47.296-3.84 13.376-4.544 28.48-1.344 46.336l2.176 2.24A71.936 71.936 0 0 1 580.48 409.408l361.536 361.6a65.92 65.92 0 0 1 0 93.184l-58.944 58.944a65.92 65.92 0 0 1-93.248 0l-361.536-361.6a71.872 71.872 0 0 1-64.768-64.704l-17.408-17.472-15.744 15.744a1.92 1.92 0 0 0-0.512 1.792l2.304 9.664a65.92 65.92 0 0 1-17.6 61.632l-51.84 51.84a65.92 65.92 0 0 1-93.184 0L82.048 532.608a65.92 65.92 0 0 1 0-93.184l51.84-51.84a65.92 65.92 0 0 1 61.632-17.6l9.664 2.304c0.64 0.128 1.28 0 1.792-0.512l19.264-19.328a65.92 65.92 0 0 1 14.4-71.68l130.304-130.24a235.328 235.328 0 0 1 166.4-68.928z m43.136 64h-43.136c-45.44 0-89.024 18.048-121.152 50.176L285.888 326.08a1.92 1.92 0 0 0 0 2.688l4.672 4.672a32 32 0 0 1 0 45.248l-38.336 38.4a65.92 65.92 0 0 1-61.632 17.472l-9.664-2.24a1.92 1.92 0 0 0-1.792 0.512l-51.84 51.84a1.92 1.92 0 0 0 0 2.688L214.72 574.72a1.92 1.92 0 0 0 2.688 0l51.84-51.84a1.92 1.92 0 0 0 0.512-1.792l-2.304-9.664a65.92 65.92 0 0 1 17.6-61.632l38.336-38.4a32 32 0 0 1 45.248 0l49.536 49.6a32 32 0 0 1 8.96 27.52c-0.32 2.56 0.448 5.12 2.368 6.976 1.92 1.92 4.48 2.688 7.04 2.304a32 32 0 0 1 27.456 8.96l371.008 371.072a1.92 1.92 0 0 0 2.688 0l59.008-58.944a1.92 1.92 0 0 0 0-2.688L525.632 445.184a32 32 0 0 1-8.96-27.52 8.064 8.064 0 0 0-2.304-7.04 8.064 8.064 0 0 0-7.04-2.24 32 32 0 0 1-27.52-8.96l-18.432-18.496a32 32 0 0 1-8.512-15.296c-7.04-30.016-7.68-59.136 0.384-87.232 8.064-28.16 24.128-52.928 46.912-75.264 20.672-20.352 47.488-39.232 80.32-57.6z" p-id="38521" fill="#5884f1"></path></svg>